<?xml version="1.0" standalone="no"?>
<!DOCTYPE svg PUBLIC "-//W3C//DTD SVG 20010904//EN"
 "http://www.w3.org/TR/2001/REC-SVG-20010904/DTD/svg10.dtd">
<svg version="1.0" xmlns="http://www.w3.org/2000/svg"
 width="802.000000pt" height="467.000000pt" viewBox="0 0 802.000000 467.000000"
 preserveAspectRatio="xMidYMid meet">

<g transform="translate(0.000000,467.000000) scale(0.100000,-0.100000)"
fill="#000000" stroke="none">
<path d="M3523 3680 c-108 -16 -119 -24 -89 -65 13 -18 19 -19 72 -7 78 16 84
9 84 -88 0 -86 3 -90 81 -90 52 0 63 18 50 79 -17 78 1 101 81 101 l43 1 -40
24 c-70 44 -180 61 -282 45z"/>
<path d="M3334 3610 c-48 -27 -134 -112 -134 -132 0 -5 13 -11 30 -14 46 -10
54 -26 46 -98 -6 -60 -5 -63 19 -74 32 -15 60 -15 86 -1 18 9 19 17 13 78 -8
87 0 95 96 89 80 -4 84 0 78 83 l-3 44 -72 -3 c-71 -3 -72 -3 -88 27 -8 17
-17 31 -18 31 -1 0 -25 -13 -53 -30z"/>
<path d="M3761 3579 c-23 -9 -23 -12 -17 -75 9 -88 3 -94 -90 -94 -69 0 -75
-2 -85 -24 -8 -16 -8 -37 -2 -63 l9 -38 74 0 74 0 14 -37 c17 -43 10 -99 -15
-124 -13 -13 -28 -15 -80 -9 -61 6 -63 6 -73 -20 -5 -14 -7 -44 -4 -66 l7 -39
76 0 c42 0 82 -4 89 -8 8 -6 12 -31 10 -82 -3 -72 -3 -73 25 -81 15 -4 43 -3
63 3 34 9 36 11 29 41 -18 85 -17 92 5 112 17 16 34 19 90 17 l69 -2 6 34 c4
18 5 46 3 62 l-3 29 -72 -3 c-71 -3 -72 -2 -88 27 -8 17 -15 44 -15 61 0 17 7
44 15 61 16 29 17 30 88 27 l72 -3 3 42 c5 71 -8 83 -83 80 -55 -2 -68 1 -86
20 -20 19 -21 25 -10 67 16 65 14 73 -20 85 -37 13 -46 13 -78 0z"/>
<path d="M3890 3516 c-9 -44 -9 -60 0 -71 14 -17 95 -21 105 -5 9 14 -19 60
-58 99 l-35 33 -12 -56z"/>
<path d="M3438 3434 c-23 -7 -28 -27 -17 -66 13 -48 11 -66 -11 -88 -24 -24
-115 -28 -146 -6 -19 14 -20 27 -11 126 2 24 0 25 -63 25 l-65 0 3 -63 c3 -46
0 -69 -13 -88 -16 -24 -19 -25 -85 -18 l-69 6 -9 -33 c-5 -21 -5 -45 1 -62
l10 -29 67 7 c65 7 69 6 84 -18 12 -17 16 -43 14 -85 -1 -34 1 -64 4 -68 15
-14 93 -15 112 -1 17 13 18 18 7 65 -16 64 -5 88 48 102 32 8 48 7 80 -6 48
-19 56 -40 42 -104 -5 -25 -6 -49 -2 -53 14 -14 75 -19 103 -8 25 9 26 12 21
70 -4 47 -2 66 11 86 17 25 20 26 83 19 74 -8 83 -2 83 56 0 57 -9 63 -82 56
-57 -6 -66 -5 -82 13 -16 17 -18 32 -14 86 3 36 2 67 -2 70 -12 7 -84 14 -102
9z"/>
<path d="M2958 3401 c-42 -9 -97 -47 -127 -90 -16 -22 -21 -44 -21 -93 0 -43
-5 -71 -16 -87 -16 -22 -21 -23 -84 -17 -74 8 -80 3 -80 -52 0 -68 6 -72 81
-70 59 3 71 0 90 -18 19 -20 20 -26 10 -74 -8 -37 -8 -56 -1 -65 17 -21 61
-27 92 -14 29 12 29 12 22 78 -8 86 2 96 100 96 l71 0 0 60 0 60 -55 -3 c-30
-1 -64 0 -76 3 -45 10 -59 103 -23 150 21 26 24 27 91 20 l69 -7 -3 63 -3 64
-50 2 c-27 0 -67 -2 -87 -6z"/>
<path d="M3895 3236 c-16 -39 -12 -78 11 -97 11 -9 25 -9 59 1 35 10 52 10 70
2 27 -12 30 -24 26 -114 l-3 -56 44 -7 c24 -4 56 -2 72 4 25 10 27 15 21 39
-5 15 -9 46 -10 70 -3 45 -18 63 -82 96 -26 13 -34 24 -39 57 -5 32 -10 39
-23 33 -20 -10 -57 -9 -98 1 -31 7 -34 5 -48 -29z"/>
<path d="M2715 3205 c-88 -19 -169 -52 -194 -79 -24 -26 -41 -75 -41 -122 0
-34 16 -44 76 -44 44 0 54 16 54 90 0 94 11 105 86 92 54 -10 60 -9 77 10 17
20 24 69 10 67 -5 0 -35 -7 -68 -14z"/>
<path d="M3285 3106 c-17 -12 -18 -19 -8 -62 9 -37 9 -55 0 -74 -11 -23 -19
-25 -92 -30 l-80 -5 -3 -54 c-2 -36 1 -57 10 -62 7 -4 40 -5 74 -2 56 5 62 4
78 -18 20 -29 21 -108 2 -135 -12 -16 -27 -19 -88 -19 l-73 0 0 -60 0 -60 75
-6 c41 -4 136 -7 210 -8 l135 -1 23 34 c16 23 22 45 20 68 l-3 33 -67 -3 c-62
-2 -68 -1 -88 25 -28 35 -24 114 7 145 19 19 24 19 78 7 48 -11 58 -10 66 2
10 16 12 54 3 95 l-5 29 -70 -3 c-95 -5 -103 3 -94 90 6 67 6 68 -20 78 -36
14 -68 12 -90 -4z"/>
<path d="M4204 3073 c2 -10 8 -37 11 -61 10 -64 -3 -74 -94 -70 -73 3 -75 2
-82 -22 -12 -41 -10 -75 5 -95 12 -17 19 -18 62 -8 86 20 107 -3 108 -114 1
-35 6 -63 11 -64 6 -1 23 24 40 56 52 102 46 252 -15 349 -29 46 -56 62 -46
29z"/>
<path d="M2425 2985 c-41 -106 -21 -263 46 -355 31 -43 111 -100 140 -100 21
0 33 47 24 91 l-7 31 -67 -7 c-60 -6 -68 -5 -86 15 -15 16 -20 36 -19 75 0 78
13 89 96 81 68 -6 69 -6 79 21 7 18 7 43 2 68 -8 40 -8 40 -48 35 -64 -7 -105
-4 -117 8 -6 6 -14 28 -17 49 l-6 38 -20 -50z"/>
<path d="M2680 2963 c-25 -4 -26 -5 -22 -74 6 -106 -17 -123 -124 -93 -43 12
-71 -56 -43 -108 10 -18 17 -19 74 -13 84 9 95 -3 95 -96 l0 -69 211 0 211 0
-7 60 c-6 48 -4 66 10 86 16 25 19 26 84 19 l68 -7 13 31 c10 25 10 37 0 61
-17 40 -21 42 -76 30 -25 -6 -54 -8 -64 -5 -29 9 -43 56 -35 118 l7 55 -48 8
c-70 10 -80 0 -76 -78 3 -60 1 -66 -22 -82 -33 -21 -100 -21 -132 1 -25 16
-26 20 -19 79 6 56 4 64 -14 73 -19 11 -42 12 -91 4z"/>
<path d="M3840 2728 c-59 -41 -61 -54 -12 -96 55 -48 57 -81 6 -128 -57 -55
-119 -43 -139 26 -16 55 -52 65 -95 27 -53 -46 -53 -50 -9 -96 34 -37 40 -48
37 -79 -3 -32 -8 -40 -45 -57 -24 -12 -48 -26 -54 -32 -26 -26 20 -103 61
-103 12 0 38 18 59 40 21 22 43 40 49 40 18 0 67 -47 87 -84 11 -20 23 -36 27
-36 9 0 154 101 244 170 36 27 74 55 85 61 19 10 18 12 -20 54 -32 35 -41 52
-41 80 0 34 3 37 55 60 62 28 71 52 35 98 -35 44 -56 43 -105 -2 -66 -60 -88
-54 -134 37 -25 48 -43 52 -91 20z"/>
<path d="M1860 2310 c0 -67 4 -110 10 -110 6 0 10 43 10 110 0 67 -4 110 -10
110 -6 0 -10 -43 -10 -110z"/>
<path d="M2330 2363 c0 -44 -3 -54 -12 -45 -18 18 -63 14 -81 -6 -22 -25 -21
-75 1 -95 22 -20 63 -22 80 -5 9 9 12 9 12 0 0 -7 5 -12 10 -12 6 0 10 43 10
110 0 67 -4 110 -10 110 -5 0 -10 -26 -10 -57z m-16 -69 c19 -18 20 -28 6 -55
-20 -37 -80 -18 -80 26 0 42 44 59 74 29z"/>
<path d="M2550 2310 c0 -67 4 -110 10 -110 6 0 10 43 10 110 0 67 -4 110 -10
110 -6 0 -10 -43 -10 -110z"/>
<path d="M1689 2371 c-61 -62 -20 -171 64 -171 46 0 67 9 67 27 0 11 -5 13
-17 8 -60 -25 -106 -8 -118 45 -8 36 13 75 50 92 18 8 30 7 54 -5 26 -13 31
-13 31 -2 0 19 -32 35 -70 35 -22 0 -41 -9 -61 -29z"/>
<path d="M2390 2300 c0 -56 4 -100 9 -100 6 0 11 17 13 38 3 33 6 37 33 40 40
5 65 29 65 63 0 36 -33 59 -82 59 l-38 0 0 -100z m74 70 c47 -17 24 -75 -26
-68 -23 3 -35 34 -24 64 6 17 16 17 50 4z"/>
<path d="M3047 2394 c-8 -8 1 -24 14 -24 5 0 9 7 9 15 0 15 -12 20 -23 9z"/>
<path d="M1937 2312 c-21 -23 -22 -76 -1 -96 8 -9 31 -16 49 -16 58 0 86 69
45 110 -25 25 -72 26 -93 2z m77 -18 c19 -18 20 -28 6 -55 -20 -37 -80 -18
-80 26 0 42 44 59 74 29z"/>
<path d="M2080 2276 c0 -63 11 -75 68 -74 l42 0 0 64 c0 49 -3 64 -14 64 -11
0 -16 -15 -18 -52 -3 -49 -5 -53 -28 -53 -23 0 -25 4 -28 53 -4 68 -22 67 -22
-2z"/>
<path d="M2617 2323 c-16 -15 -5 -21 27 -16 25 4 35 1 39 -11 5 -13 0 -16 -27
-16 -39 0 -59 -19 -54 -52 3 -21 9 -23 56 -24 l52 -1 0 52 c0 28 -5 56 -12 63
-13 13 -70 17 -81 5z m66 -70 c10 -10 -13 -33 -34 -33 -21 0 -33 15 -24 30 7
11 48 14 58 3z"/>
<path d="M2750 2263 c0 -76 18 -85 22 -10 3 48 5 52 28 52 23 0 25 -4 28 -52
4 -69 22 -68 22 1 0 63 -12 76 -63 74 l-37 -1 0 -64z"/>
<path d="M2900 2263 c0 -76 18 -85 22 -10 3 48 5 52 28 52 23 0 25 -4 28 -52
4 -69 22 -68 22 1 0 63 -12 76 -63 74 l-37 -1 0 -64z"/>
<path d="M3050 2265 c0 -37 4 -65 10 -65 6 0 10 28 10 65 0 37 -4 65 -10 65
-6 0 -10 -28 -10 -65z"/>
<path d="M3120 2263 c0 -76 18 -85 22 -10 3 48 5 52 28 52 23 0 25 -4 28 -52
4 -69 22 -68 22 1 0 63 -12 76 -63 74 l-37 -1 0 -64z"/>
<path d="M3271 2303 c-24 -30 -25 -34 -9 -68 12 -27 45 -41 79 -32 16 4 20 1
17 -16 -4 -29 -56 -37 -75 -11 -16 22 -31 9 -17 -14 13 -21 79 -28 100 -11 10
8 14 34 14 93 l0 82 -44 2 c-38 1 -48 -3 -65 -25z m79 -7 c28 -35 -11 -93 -47
-70 -36 22 -23 84 17 84 10 0 23 -7 30 -14z"/>
</g>
</svg>
