<?xml version="1.0" standalone="no"?>
<!DOCTYPE svg PUBLIC "-//W3C//DTD SVG 20010904//EN"
 "http://www.w3.org/TR/2001/REC-SVG-20010904/DTD/svg10.dtd">
<svg version="1.0" xmlns="http://www.w3.org/2000/svg"
 width="300.000000pt" height="300.000000pt" viewBox="0 0 300.000000 300.000000"
 preserveAspectRatio="xMidYMid meet">

<g transform="translate(0.000000,300.000000) scale(0.100000,-0.100000)"
fill="#000000" stroke="none">
<path d="M1385 2859 c-754 -69 -1306 -722 -1243 -1469 51 -612 492 -1099 1108
-1226 126 -26 382 -24 512 4 283 62 494 176 694 376 200 200 314 411 376 694
28 130 30 386 4 512 -95 460 -389 826 -808 1006 -106 45 -281 90 -383 98 -44
4 -100 8 -125 10 -25 2 -86 0 -135 -5z m305 -129 c96 -14 233 -56 329 -101
356 -166 607 -484 698 -884 26 -117 24 -387 -5 -505 -43 -176 -93 -291 -190
-436 -60 -89 -196 -233 -282 -298 -77 -57 -218 -133 -308 -166 -166 -60 -241
-73 -427 -74 -175 -1 -248 9 -385 54 -446 144 -780 534 -851 994 -15 97 -6
372 15 461 104 431 403 760 826 908 41 15 148 40 210 50 51 8 307 6 370 -3z"/>
<path d="M1302 2275 c-168 -30 -322 -95 -444 -185 l-68 -50 0 -664 c0 -605 1
-665 17 -677 12 -10 51 -14 150 -14 122 0 136 2 149 19 12 17 14 112 14 583
l0 563 38 19 c210 106 434 112 670 16 l42 -17 0 -573 0 -574 26 -20 c24 -19
40 -21 146 -21 113 0 120 1 143 25 l25 24 0 655 c0 360 -3 662 -6 671 -16 40
-207 145 -337 185 -158 49 -404 64 -565 35z m403 -120 c141 -26 273 -76 357
-136 l28 -20 -2 -597 -3 -597 -45 0 -45 0 -5 560 c-3 308 -9 566 -14 573 -10
17 -114 64 -215 98 -104 36 -311 45 -427 19 -90 -19 -288 -99 -316 -127 -17
-17 -18 -48 -18 -573 l0 -555 -45 0 -45 0 0 591 c0 552 1 593 18 606 77 60
231 126 362 153 108 23 306 25 415 5z"/>
</g>
</svg>
